<svg width="8" height="8" viewBox="0 0 8 8" fill="none" xmlns="http://www.w3.org/2000/svg">
<g clip-path="url(#clip0_21_1283)">
<path d="M4.28 0.622862L5.18857 2.45715C5.20924 2.50371 5.24174 2.54403 5.28285 2.57411C5.32396 2.60419 5.37223 2.62297 5.42286 2.62858L7.42855 2.92572C7.48667 2.93318 7.54141 2.95702 7.58644 2.99444C7.63147 3.03186 7.66495 3.08132 7.6829 3.13704C7.7009 3.19277 7.70261 3.25246 7.68793 3.30914C7.6733 3.36582 7.64278 3.41715 7.59998 3.45715L6.15427 4.89143C6.11741 4.92591 6.0897 4.96906 6.07375 5.01697C6.05775 5.06487 6.05404 5.116 6.06284 5.16572L6.41141 7.18284C6.42153 7.24084 6.41513 7.30044 6.39301 7.35495C6.3709 7.40947 6.33393 7.45667 6.28627 7.49124C6.23867 7.52575 6.18227 7.54621 6.12358 7.55033C6.0649 7.55438 6.00621 7.54192 5.95427 7.51427L4.14857 6.55998C4.10234 6.5373 4.05151 6.52552 4 6.52552C3.94849 6.52552 3.89767 6.5373 3.85143 6.55998L2.04571 7.51427C1.99377 7.54192 1.93511 7.55438 1.87642 7.55033C1.81773 7.54621 1.76135 7.52575 1.71373 7.49124C1.66609 7.45667 1.62911 7.40947 1.60698 7.35495C1.58486 7.30044 1.57848 7.24084 1.58857 7.18284L1.93714 5.14286C1.94598 5.09315 1.94224 5.04201 1.92627 4.99411C1.91031 4.9462 1.88261 4.90305 1.84571 4.86858L0.382859 3.45715C0.33958 3.41606 0.309144 3.3633 0.295238 3.30527C0.281332 3.24724 0.284552 3.18642 0.304508 3.13018C0.324465 3.07394 0.360301 3.02469 0.407676 2.9884C0.455052 2.95211 0.511933 2.93034 0.571428 2.92572L2.57714 2.62858C2.62777 2.62297 2.67605 2.60419 2.71715 2.57411C2.75826 2.54403 2.79077 2.50371 2.81143 2.45715L3.72 0.622862C3.74474 0.569439 3.78425 0.524209 3.83387 0.492511C3.88348 0.460813 3.94113 0.44397 4 0.44397C4.05887 0.44397 4.11653 0.460813 4.16614 0.492511C4.21575 0.524209 4.25526 0.569439 4.28 0.622862Z" stroke="black" stroke-linecap="round" stroke-linejoin="round"/>
</g>
<defs>
<clipPath id="clip0_21_1283">
<rect width="8" height="8" fill="white"/>
</clipPath>
</defs>
</svg>
