<svg width="14" height="14" viewBox="0 0 14 14" fill="none" xmlns="http://www.w3.org/2000/svg">
<g clip-path="url(#clip0_21_415)">
<path d="M13.1801 13.5C12.7602 12.1908 11.9355 11.0488 10.8249 10.2386C9.71416 9.4284 8.37487 8.99182 7.00007 8.99182C5.62526 8.99182 4.28597 9.4284 3.17528 10.2386C2.0646 11.0488 1.23989 12.1908 0.820068 13.5H13.1801Z" stroke="black" stroke-linecap="round" stroke-linejoin="round"/>
<path d="M7 9C9.3373 9 11.2321 7.10524 11.2321 4.76794C11.2321 2.43064 9.3373 0.535889 7 0.535889C4.6627 0.535889 2.76794 2.43064 2.76794 4.76794C2.76794 7.10524 4.6627 9 7 9Z" stroke="black" stroke-linecap="round" stroke-linejoin="round"/>
<path d="M8.38196 6.4054C8.38196 6.4054 8.03081 7.09634 7.00006 7.09634C5.96931 7.09634 5.61816 6.4054 5.61816 6.4054" stroke="black" stroke-linecap="round" stroke-linejoin="round"/>
<path d="M11.1554 3.96219C11.1459 3.96225 11.1365 3.96228 11.1271 3.96228C9.89693 3.96228 8.7925 3.42409 8.03637 2.57033C7.28025 3.42411 6.17581 3.96231 4.94566 3.96231C4.23132 3.96231 3.55936 3.78082 2.97339 3.46144C3.52393 1.76353 5.11856 0.535889 6.99993 0.535889C9.0617 0.535889 10.7791 2.01026 11.1554 3.96219Z" stroke="black" stroke-linecap="round" stroke-linejoin="round"/>
</g>
<defs>
<clipPath id="clip0_21_415">
<rect width="14" height="14" fill="white"/>
</clipPath>
</defs>
</svg>
